<svg xmlns="http://www.w3.org/2000/svg" viewBox="0 0 1200 680"><defs><style>.cls-1{fill:#afd9cd;}.cls-2{fill:#ffb0b0;}.cls-3,.cls-6{fill:none;}.cls-3{stroke:#3b404f;stroke-linecap:round;stroke-miterlimit:10;stroke-width:4px;}.cls-4{fill:#3b404f;}.cls-5{fill:#e8c688;}</style></defs><g id="Layer_2" data-name="Layer 2"><g id="Layer_1-2" data-name="Layer 1"><circle class="cls-1" cx="506.34" cy="537.02" r="55.11"/><rect class="cls-2" x="825.77" y="385.09" width="340.85" height="215.73" rx="9.29"/><path class="cls-3" d="M653.1,398.55a41,41,0,0,1,33.83,20.56s22.13,23.61,58.21,47.27,46.81,34.73,59.92,19.75,13.28-62.64-23.49-106.56c0,0-.17,39.32,10.21,60.77,0,0-1.19,23.32-12.93,45.62"/><path class="cls-3" d="M748.08,136.21s25-1.27,23.11,16-22.85,12.64-22.85,12.64l-5.24,71.1c121,58.73,147.58,140.43,154.21,215.49s-29.44,124.26-83.23,125.79-104.68-47-104.68-47-29.79-24.68-35.23-29.78-9.88-5.79-9.88-5.79c-25.87,2.47-33.61-12-33.61-12C619.36,478.21,618.51,466,618.51,466c-6.3-3.24-7.66-13.53-7.66-13.53-2.56-1-16-8.52-17.2-16.17s0-10.39,21.62-1,53.79-8.68,53.79-8.68l-33.73-67.91L569,329.36l-22.12-68.42"/><path class="cls-3" d="M646.34,72.26s-7.24,7.23-7.41,14-3.57,99.57-3.57,99.57-2.22,35.07,35.4,39.83l-1.36,16.17,8.68,63.66,65-69.62"/><path class="cls-3" d="M562.16,307.37s42-67.79,107.64-70.22"/><path class="cls-3" d="M307.19,459.74,329,412.43,319.78,359,348,301.11l198.12-40a.41.41,0,0,1,.47.53l-26,80.36,5.79,65-11.23,46Z"/><polyline class="cls-3" points="684.99 509.8 683.02 517.62 752.46 590.13 739.53 638.81 577.49 638.81 587.02 613.28 496.46 537.02 494.08 470.3 479.13 454.12"/><line class="cls-3" x1="522.51" y1="336.17" x2="568.97" y2="329.36"/><line class="cls-3" x1="523.11" y1="369.76" x2="635.33" y2="358.64"/><line class="cls-3" x1="494.08" y1="470.3" x2="614.05" y2="461.57"/><line class="cls-3" x1="496.46" y1="537.02" x2="683.02" y2="517.62"/><line class="cls-3" x1="587.02" y1="613.28" x2="752.46" y2="590.13"/><line class="cls-3" x1="319.78" y1="358.98" x2="520.63" y2="341.96"/><line class="cls-3" x1="328.97" y1="412.43" x2="526.42" y2="406.98"/><line class="cls-3" x1="335.78" y1="383.49" x2="415.78" y2="379.57"/><line class="cls-3" x1="420.21" y1="392.68" x2="437.57" y2="364.2"/><polyline class="cls-3" points="366.42 422.98 346 429.11 356.21 434.89"/><line class="cls-3" x1="426.92" y1="431.83" x2="474.68" y2="431.83"/><polyline class="cls-3" points="484.21 420.6 506.34 420.6 495.27 447.15 474.68 447.15"/><line class="cls-3" x1="427.7" y1="316.09" x2="450.8" y2="312.68"/><line class="cls-3" x1="463.78" y1="310.3" x2="496.46" y2="307.37"/><line class="cls-3" x1="572.72" y1="379.57" x2="546.85" y2="436.26"/><line class="cls-3" x1="584.29" y1="404.94" x2="627.53" y2="401.19"/><line class="cls-3" x1="526.42" y1="508.09" x2="526.42" y2="515.91"/><line class="cls-3" x1="526.42" y1="482.21" x2="526.42" y2="492.95"/><line class="cls-3" x1="554.07" y1="500.94" x2="595.19" y2="499.06"/><line class="cls-3" x1="579.22" y1="581.28" x2="603.7" y2="573.45"/><line class="cls-3" x1="633.31" y1="565.62" x2="662.93" y2="559.49"/><polyline class="cls-3" points="654.76 537.02 690.16 547.91 675.53 581.28"/><path class="cls-3" d="M709.4,530.21s31.91-16.93,35.74-63.83"/><path class="cls-3" d="M610.85,452.43s25.87,4.93,41.36-1.45"/><path class="cls-3" d="M618.51,466s19.32,4.93,37.53-.94"/><path class="cls-3" d="M630.68,482.64s17.27,2.47,30.8,0"/><path class="cls-3" d="M316.08,477.32s-20.68-22.21-29.23-11.62,6,37.66,15.32,38,.76-22.72.76-22.72"/><path class="cls-3" d="M312.89,515.23s-22.85,18.13-39.06-8.29-3.55-26.27,9-30.1"/><path class="cls-3" d="M313.4,522.55s-11.32,20-26.55,12.26S267.78,516,267.44,496.09"/><path class="cls-3" d="M312.89,526.72s0,26.47-21.19,20.85c-15.51-4.11-17.66-12.5-22.79-35.78"/><path class="cls-3" d="M314.72,530.17s6.84,28-17.75,27.45c-15-.36-21.72-23.52-21.72-23.52"/><path class="cls-3" d="M359.48,568.34s37.79,5.87,43-36.25,3.83-47.37,3.83-47.37S394,467.49,358.46,467.49s-43.15,12.51-45.57,17c0,0,.51,29.36.89,36.83S316.34,568.34,359.48,568.34Z"/><line class="cls-3" x1="329.81" y1="558.91" x2="305.87" y2="556.85"/><path class="cls-4" d="M313.1,495.57l-.21,1.67s8,12,45.83,12,46.59-13.14,46.59-13.14l.52-7.79L402,496.09s-6.9-14.18-40.73-14.18-47.87,13.15-47.87,13.15"/><path class="cls-3" d="M392.46,556.85s73.15-5.74,103.11-44.85"/><line class="cls-3" x1="427.14" y1="455.82" x2="393.39" y2="474.86"/><line class="cls-3" x1="583.61" y1="334.64" x2="588.72" y2="320.68"/><line class="cls-3" x1="645.07" y1="113.08" x2="654.14" y2="106.18"/><line class="cls-3" x1="699.24" y1="109.53" x2="709.57" y2="114.32"/><path class="cls-3" d="M673.4,117.19v19.53s-13.15-.89-13.15,8.43,12,7.79,12,7.79"/><path class="cls-3" d="M695.36,175.91s9.06-3.06,10.34-10.34"/><rect class="cls-4" x="699.83" y="123.06" width="8.43" height="13.13" rx="4.21"/><rect class="cls-4" x="646.59" y="121.98" width="8.43" height="13.13" rx="4.21"/><path class="cls-4" d="M687.44,81.45s-64.08,14-62.81-22.22,39.83-23,54.39-15.06c0,0,26.81-6.38,40.85,7.92,0,0,36,.51,44.68,28.85s2,59.8,2,59.8-16.21-4.4-26.38-1.68L739,135.83s2.55-31.28-4.6-44.68C734.42,91.15,692.55,95.49,687.44,81.45Z"/><path class="cls-4" d="M670.09,246.93s24.25-1.14,31.74-21.74l-29.45-1.36-7.66-1,6,3.49Z"/><path class="cls-4" d="M793.46,442.4l7.22-32.87s-14-22.91-17.62-27-1.17,7.72-1.17,7.72,2.41,33.67,7,42.91Z"/><path class="cls-3" d="M499.87,183.32c.51.51,13.61,12.94,13.61,12.94"/><line class="cls-3" x1="506.68" y1="215.15" x2="488.12" y2="225.53"/><polygon class="cls-1" points="878.16 272.94 897.06 262.47 909.57 278.81 889.14 286.21 878.16 272.94"/><path class="cls-5" d="M180.38,209.87s215.39-59.54,278.48,68.84L348,301.11l-29.25,57.61,9.35,53-22.23,48.49H166.59Z"/><rect class="cls-6" width="1200" height="680"/></g></g></svg>