<svg xmlns="http://www.w3.org/2000/svg" version="1.1" xmlns:xlink="http://www.w3.org/1999/xlink" xmlns:svgjs="http://svgjs.dev/svgjs" width="1500" height="1500" viewBox="0 0 1500 1500"><rect width="1500" height="1500" fill="#ffffff"></rect><g transform="matrix(0.6666666666666666,0,0,0.6666666666666666,250,250)"><svg viewBox="0 0 280 280" data-background-color="#ffffff" preserveAspectRatio="xMidYMid meet" height="1500" width="1500" xmlns="http://www.w3.org/2000/svg" xmlns:xlink="http://www.w3.org/1999/xlink"><g id="tight-bounds" transform="matrix(1,0,0,1,0,0)"><svg viewBox="0 0 280 280" height="280" width="280"><g><svg viewBox="0 0 280 280" height="280" width="280"><g><svg viewBox="0 0 280 280" height="280" width="280"><g id="textblocktransform"><svg viewBox="0 0 280 280" height="280" width="280" id="textblock"><g><svg viewBox="0 0 280 280" height="280" width="280"><g transform="matrix(1,0,0,1,104.78529662270861,90.50252531694167)"><svg viewBox="0 0 70.42940675458277 98.99494936611664" height="98.99494936611664" width="70.42940675458277"><g><svg xmlns="http://www.w3.org/2000/svg" xmlns:xlink="http://www.w3.org/1999/xlink" version="1.1" x="0" y="0" viewBox="17.985 5 64.03 90" enable-background="new 0 0 100 100" xml:space="preserve" height="98.99494936611664" width="70.42940675458277" class="icon-xg-0" data-fill-palette-color="accent" id="xg-0"><g fill="#8d021f" data-fill-palette-color="accent"><path d="M56.132 11.462C51.047 5 50.888 5 50 5c-0.483 0-0.942 0.21-1.263 0.571C48.43 5.92 17.985 41.376 17.985 62.985 17.985 80.639 32.347 95 50 95s32.015-14.361 32.015-32.015c0-9.14-5.176-21.596-15.384-37.022C62.648 19.946 58.724 14.756 56.132 11.462zM50 91.631c-15.795 0-28.646-12.851-28.646-28.646 0-16.686 20.988-44.624 28.673-53.748 6.044 7.08 28.618 36.254 28.618 53.748C78.646 78.78 65.795 91.631 50 91.631z" fill="#8d021f" data-fill-palette-color="accent"></path><path d="M48.169 84.262c-5.821-0.361-13.55-2.584-17.301-11.123-0.268-0.609-0.976-0.882-1.586-0.618-0.608 0.269-0.885 0.978-0.617 1.586 4.239 9.649 12.865 12.154 19.355 12.558 0.025 0.001 0.051 0.002 0.075 0.002 0.631 0 1.16-0.491 1.2-1.129C49.336 84.874 48.832 84.303 48.169 84.262z" fill="#8d021f" data-fill-palette-color="accent"></path></g></svg></g></svg></g><g><path d="M29.635 110.301l-21.629-7.821-1.455 2.697-1.735-0.627 1.698-4.697c0.285-0.787 0.599-1.801 0.943-3.039v0c0.31-1.147 0.562-1.988 0.756-2.523v0c1.157-3.199 2.482-5.307 3.977-6.325 1.495-1.018 3.205-1.178 5.13-0.482v0c1.642 0.594 2.883 1.578 3.722 2.953 0.842 1.383 1.116 2.953 0.821 4.71v0c0.756-2.245 1.909-3.807 3.458-4.686 1.551-0.886 3.268-0.988 5.151-0.308v0c2.338 0.845 3.947 2.366 4.829 4.564 0.89 2.193 0.644 5.203-0.74 9.029v0c-0.303 0.837-0.629 1.623-0.978 2.359v0c-0.722 1.784-1.145 2.848-1.269 3.192v0l-1.675 4.632-1.707-0.617zM18.587 102.132c0.14-0.311 0.391-0.965 0.75-1.961v0l0.694-1.92c0.585-1.618 0.577-3.009-0.025-4.172-0.602-1.164-1.736-2.047-3.403-2.649v0c-1.624-0.587-2.966-0.599-4.025-0.037-1.053 0.565-1.943 1.854-2.67 3.866v0c-0.303 0.837-0.567 1.711-0.793 2.624v0l-0.199 0.752zM31.071 106.646c0.376-0.462 0.904-1.635 1.585-3.517v0c0.845-2.338 0.979-4.209 0.402-5.613-0.585-1.401-1.782-2.429-3.591-3.083v0c-1.784-0.645-3.248-0.656-4.391-0.033-1.143 0.623-2.083 1.952-2.819 3.988v0c-0.856 2.368-1.372 3.872-1.548 4.511v0z" fill="#8d021f" data-fill-palette-color="primary"></path><path d="M46.807 75.32l-20.454-15.115-2.116 2.17-1.278-0.945 2.979-5.204 0.047-0.063 0.926-0.328 22.214 16.415 2.102-2.351 1.46 1.079-5.936 8.033-1.46-1.078z" fill="#8d021f" data-fill-palette-color="primary"></path><path d="M57.868 51.096c-1.369-1.753-2.194-3.548-2.477-5.387-0.286-1.843-0.103-3.559 0.549-5.147 0.652-1.588 1.648-2.906 2.989-3.953v0c2.449-1.913 4.898-2.576 7.347-1.991 2.448 0.595 4.659 2.155 6.631 4.681v0c1.381 1.768 2.21 3.573 2.487 5.416 0.286 1.843 0.099 3.554-0.561 5.132-0.66 1.578-1.66 2.89-3 3.937v0c-2.449 1.913-4.895 2.574-7.34 1.985-2.448-0.595-4.657-2.152-6.625-4.673zM70.718 51.99c1.34-1.047 1.936-2.404 1.787-4.072-0.144-1.672-1.066-3.596-2.765-5.772v0c-1.683-2.155-3.35-3.604-5.002-4.347-1.646-0.748-3.196-0.554-4.65 0.581v0c-1.34 1.047-1.944 2.41-1.81 4.091 0.135 1.671 1.052 3.594 2.751 5.77v0c1.687 2.16 3.364 3.606 5.031 4.337 1.667 0.732 3.22 0.536 4.658-0.588z" fill="#8d021f" data-fill-palette-color="primary"></path><path d="M90.675 30.124c-0.756-2.092-0.982-4.055-0.679-5.89 0.301-1.841 1.009-3.415 2.122-4.721 1.113-1.307 2.47-2.249 4.07-2.827v0c2.922-1.056 5.456-0.925 7.601 0.392 2.142 1.326 3.758 3.497 4.847 6.511v0c0.763 2.11 0.989 4.084 0.68 5.921-0.301 1.841-1.011 3.409-2.129 4.703-1.118 1.294-2.477 2.231-4.076 2.808v0c-2.922 1.056-5.453 0.924-7.593-0.395-2.142-1.326-3.756-3.494-4.843-6.502zM102.609 34.97c1.599-0.578 2.588-1.683 2.965-3.315 0.383-1.634 0.105-3.749-0.833-6.345v0c-0.93-2.571-2.063-4.467-3.402-5.687-1.332-1.223-2.866-1.52-4.6-0.893v0c-1.599 0.578-2.597 1.686-2.993 3.324-0.392 1.63-0.118 3.743 0.821 6.339v0c0.932 2.578 2.076 4.473 3.433 5.687 1.357 1.214 2.893 1.51 4.609 0.89z" fill="#8d021f" data-fill-palette-color="primary"></path><path d="M136.644 30.909c-1.484 0.039-2.851-0.295-4.1-1.001-1.249-0.707-2.259-1.812-3.032-3.316-0.766-1.511-1.179-3.388-1.237-5.631v0c-0.055-2.092 0.326-4.013 1.144-5.762 0.818-1.749 2.021-3.142 3.61-4.179 1.589-1.043 3.479-1.593 5.669-1.65v0c1.255-0.033 2.407 0.071 3.453 0.311v0l-0.181-6.905-3.788-0.352-0.042-1.589 6.643-0.832 0.107-0.003 0.83 0.567 0.731 27.797 2.138-0.056 0.045 1.697c-0.78 0.197-1.46 0.352-2.039 0.466-0.573 0.113-1.18 0.178-1.821 0.195v0c-0.641 0.017-1.101-0.082-1.382-0.297-0.274-0.215-0.42-0.679-0.439-1.392v0l-0.031-1.187c-0.671 0.855-1.558 1.582-2.661 2.18-1.11 0.592-2.316 0.905-3.617 0.939zM138.046 28.252c0.961-0.025 1.855-0.265 2.68-0.719 0.832-0.454 1.45-0.971 1.854-1.55v0l-0.356-13.526c-0.21-0.289-0.682-0.542-1.413-0.758-0.732-0.216-1.503-0.314-2.315-0.292v0c-1.922 0.051-3.437 0.823-4.542 2.318-1.112 1.502-1.628 3.779-1.548 6.833v0c0.07 2.661 0.629 4.62 1.676 5.874 1.041 1.255 2.362 1.862 3.964 1.82z" fill="#8d021f" data-fill-palette-color="primary"></path><path d="M168.136 31.771l7.265-21.822-2.632-1.352 0.583-1.75 9.542 3.177-0.582 1.75-3.159-0.576-3.14 9.431 12.344 4.11 3.14-9.431-2.697-1.373 0.583-1.75 9.403 3.13-0.583 1.75-2.917-0.495-7.265 21.821 2.659 1.268-0.573 1.723-9.44-3.143 0.573-1.722 2.992 0.613 3.4-10.213-12.344-4.11-3.401 10.213 2.939 1.361-0.573 1.722-9.654-3.214 0.573-1.722z" fill="#8d021f" data-fill-palette-color="primary"></path><path d="M211.193 56.055c-2.35-1.837-3.545-4.004-3.585-6.502-0.031-2.499 0.955-5.028 2.957-7.59v0c1.321-1.69 2.803-2.927 4.445-3.711 1.647-0.78 3.32-1.066 5.019-0.859 1.702 0.202 3.293 0.881 4.772 2.037v0c1.804 1.41 2.815 3.006 3.032 4.787 0.218 1.781-0.371 3.629-1.767 5.543v0c-0.927 1.185-1.701 2.033-2.324 2.542v0l-10.018-7.832c-1.467 1.95-2.232 3.847-2.295 5.691-0.063 1.844 0.691 3.38 2.263 4.609v0c0.778 0.608 1.699 1.104 2.761 1.486 1.067 0.377 1.983 0.554 2.75 0.53v0l-0.447 1.719c-1.017 0.143-2.247-0.004-3.689-0.443-1.438-0.444-2.73-1.113-3.874-2.007zM214.957 42.956l6.988 5.463c0.379-0.368 0.734-0.763 1.064-1.186v0c0.972-1.275 1.486-2.479 1.543-3.614 0.053-1.129-0.475-2.127-1.583-2.993v0c-1.129-0.882-2.346-1.178-3.653-0.888-1.311 0.296-2.764 1.368-4.359 3.218z" fill="#8d021f" data-fill-palette-color="primary"></path><path d="M232.322 74.15l20.427-15.151-1.457-2.657 1.276-0.947 4.108 4.369 0.047 0.063 0.043 0.982-22.184 16.453 1.634 2.698-1.458 1.081-5.951-8.023 1.458-1.081z" fill="#8d021f" data-fill-palette-color="primary"></path><path d="M259.948 110.272c-1.958 0.74-3.904 1.014-5.836 0.821-1.924-0.189-3.644-0.854-5.159-1.994-1.509-1.143-2.642-2.718-3.401-4.725v0c-0.21-0.557-0.391-1.174-0.542-1.851-0.153-0.683-0.237-1.246-0.25-1.689v0l-2.859 1.207-3.497 1.321 0.98 3.731-1.698 0.642-3.645-9.647 1.698-0.641 1.316 2.345 22.826-8.626-0.329-2.76 1.872-0.708 2.48 4.675 0.028 0.073-0.35 0.961-2.047 0.773c1.026 0.402 1.997 1.018 2.911 1.848 0.921 0.827 1.621 1.874 2.099 3.14v0c0.513 1.358 0.653 2.736 0.418 4.132-0.243 1.392-0.934 2.699-2.074 3.92-1.146 1.223-2.793 2.241-4.941 3.052zM263.585 98.661c-0.331-0.875-0.823-1.623-1.477-2.243-0.656-0.626-1.282-1.061-1.878-1.304v0l-13.042 4.929c-0.215 0.263-0.309 0.764-0.282 1.501 0.036 0.742 0.201 1.504 0.497 2.288v0c0.671 1.774 1.913 2.945 3.729 3.51 1.821 0.563 4.151 0.309 6.99-0.764v0c2.49-0.941 4.167-2.12 5.03-3.537 0.855-1.421 0.999-2.881 0.433-4.38z" fill="#8d021f" data-fill-palette-color="primary"></path><path d="M13.9 184.366l23.753-8.838-0.707-3.307 1.913-0.711 1.92 5.159c0.322 0.864 0.781 1.939 1.377 3.224v0c0.552 1.184 0.937 2.07 1.157 2.659v0c1.307 3.513 1.697 6.229 1.168 8.149-0.534 1.923-1.859 3.277-3.973 4.065v0c-1.809 0.673-3.554 0.729-5.235 0.167-1.687-0.559-3.033-1.681-4.037-3.366v0c0.959 2.428 1.101 4.563 0.425 6.406-0.673 1.849-2.043 3.157-4.108 3.926v0c-2.569 0.956-5.007 0.827-7.316-0.387-2.308-1.214-4.245-3.924-5.809-8.13v0c-0.34-0.913-0.626-1.805-0.859-2.675v0c-0.665-2.014-1.07-3.214-1.214-3.6v0l-1.888-5.076 1.876-0.698zM29.006 183.352c0.108 0.365 0.366 1.096 0.774 2.193v0l0.78 2.097c0.664 1.784 1.663 2.951 2.999 3.501 1.327 0.546 2.91 0.477 4.749-0.207v0c1.778-0.661 2.911-1.603 3.399-2.825 0.485-1.228 0.317-2.948-0.507-5.161v0c-0.342-0.92-0.742-1.845-1.201-2.777v0l-0.38-0.77zM15.295 188.453c0.011 0.666 0.399 2.029 1.165 4.089v0c0.958 2.575 2.182 4.241 3.671 4.999 1.486 0.766 3.222 0.78 5.208 0.041v0c1.962-0.73 3.2-1.763 3.715-3.099 0.521-1.338 0.365-3.127-0.467-5.364v0c-0.967-2.599-1.606-4.232-1.916-4.898v0z" fill="#8d021f" data-fill-palette-color="primary"></path><path d="M33.477 223.676l22.459-16.776-1.612-2.912 1.407-1.051 4.544 4.787 0.053 0.071 0.039 1.085-24.384 18.216 1.813 2.968-1.604 1.198-6.582-8.812 1.603-1.198z" fill="#8d021f" data-fill-palette-color="primary"></path><path d="M57.294 236.571c1.507-1.927 3.209-3.286 5.107-4.077 1.892-0.795 3.776-1.054 5.651-0.775 1.87 0.275 3.541 0.988 5.015 2.141v0c2.7 2.112 4.059 4.553 4.076 7.323 0.022 2.775-1.054 5.553-3.23 8.335v0c-1.523 1.948-3.231 3.319-5.124 4.115-1.898 0.791-3.777 1.044-5.639 0.759-1.871-0.284-3.543-1.002-5.016-2.154v0c-2.7-2.112-4.057-4.555-4.07-7.331-0.022-2.775 1.054-5.553 3.23-8.336zM59.76 250.557c1.474 1.152 3.085 1.428 4.833 0.828 1.749-0.601 3.56-2.099 5.433-4.495v0c1.858-2.375 2.965-4.545 3.321-6.508 0.361-1.959-0.259-3.566-1.861-4.819v0c-1.479-1.157-3.098-1.438-4.856-0.846-1.754 0.597-3.567 2.093-5.442 4.489v0c-1.858 2.375-2.957 4.551-3.298 6.526-0.341 1.976 0.282 3.584 1.87 4.825z" fill="#8d021f" data-fill-palette-color="primary"></path><path d="M89.772 257.694c0.836-2.299 2.034-4.119 3.593-5.459 1.553-1.342 3.264-2.172 5.132-2.487 1.863-0.318 3.673-0.157 5.432 0.482v0c3.221 1.171 5.269 3.071 6.144 5.7 0.881 2.631 0.718 5.606-0.49 8.926v0c-0.845 2.324-2.044 4.157-3.596 5.499-1.559 1.34-3.268 2.163-5.126 2.469-1.867 0.31-3.679 0.145-5.438-0.494v0c-3.221-1.171-5.268-3.074-6.14-5.71-0.881-2.631-0.718-5.606 0.489-8.926zM96.449 270.228c1.758 0.639 3.376 0.403 4.852-0.71 1.476-1.113 2.734-3.098 3.773-5.957v0c1.03-2.834 1.411-5.24 1.142-7.217-0.263-1.975-1.351-3.31-3.263-4.005v0c-1.764-0.641-3.391-0.408-4.88 0.7-1.483 1.111-2.744 3.095-3.783 5.954v0c-1.03 2.834-1.402 5.243-1.113 7.227 0.288 1.984 1.379 3.32 3.272 4.008z" fill="#8d021f" data-fill-palette-color="primary"></path><path d="M135.652 279.774c-1.628-0.047-3.11-0.499-4.447-1.356-1.336-0.857-2.379-2.137-3.128-3.84-0.755-1.71-1.097-3.801-1.025-6.273v0c0.067-2.308 0.605-4.396 1.614-6.265 1.003-1.875 2.41-3.336 4.22-4.383 1.81-1.047 3.925-1.535 6.345-1.465v0c1.386 0.04 2.644 0.224 3.773 0.551v0l0.22-7.611-4.134-0.611 0.051-1.755 7.347-0.524 0.128 0.004 0.873 0.683-0.887 30.63 2.364 0.068-0.054 1.873c-0.875 0.164-1.635 0.293-2.279 0.386-0.637 0.093-1.309 0.129-2.015 0.108v0c-0.706-0.02-1.206-0.159-1.5-0.416-0.294-0.251-0.429-0.772-0.406-1.563v0l0.037-1.304c-0.785 0.906-1.805 1.652-3.058 2.238-1.254 0.592-2.6 0.867-4.039 0.825zM137.364 276.928c1.059 0.031 2.057-0.179 2.992-0.63 0.942-0.45 1.651-0.98 2.127-1.587v0l0.432-14.908c-0.206-0.333-0.708-0.642-1.504-0.927-0.79-0.278-1.633-0.43-2.529-0.456v0c-2.118-0.061-3.832 0.697-5.141 2.275-1.309 1.578-2.012 4.051-2.11 7.419v0c-0.085 2.936 0.408 5.126 1.479 6.57 1.071 1.445 2.489 2.192 4.254 2.244z" fill="#8d021f" data-fill-palette-color="primary"></path><path d="M172.53 272.866l-7.988-24.052-3.209 0.548-0.643-1.936 10.522-3.495 0.644 1.937-3.17 1.57 3.454 10.401 13.614-4.521-3.454-10.401-3.293 0.576-0.643-1.937 10.364-3.442 0.643 1.937-2.899 1.48 7.987 24.053 3.181-0.633 0.631 1.9-10.401 3.454-0.631-1.9 3.049-1.436-3.739-11.258-13.614 4.521 3.739 11.258 3.488-0.734 0.631 1.899-10.634 3.532-0.631-1.9z" fill="#8d021f" data-fill-palette-color="primary"></path><path d="M225.219 249.73c-2.591 2.028-5.227 2.73-7.91 2.104-2.681-0.634-5.127-2.363-7.336-5.185v0c-1.456-1.859-2.383-3.771-2.782-5.735-0.399-1.964-0.265-3.83 0.403-5.598 0.671-1.763 1.821-3.282 3.448-4.556v0c1.988-1.556 3.963-2.217 5.924-1.983 1.965 0.239 3.783 1.363 5.454 3.369v0c1.02 1.303 1.724 2.356 2.11 3.157v0l-11.04 8.643c1.708 2.086 3.536 3.408 5.485 3.967 1.955 0.555 3.8 0.153 5.536-1.205v0c0.855-0.669 1.625-1.521 2.31-2.556 0.69-1.039 1.126-1.974 1.306-2.805v0l1.712 0.929c-0.119 1.132-0.606 2.41-1.46 3.834-0.845 1.425-1.898 2.632-3.16 3.62zM212.19 242.222l7.703-6.03c-0.284-0.501-0.609-0.985-0.976-1.454v0c-1.109-1.375-2.262-2.242-3.457-2.601-1.201-0.356-2.409-0.058-3.625 0.893v0c-1.241 0.972-1.877 2.197-1.908 3.674-0.04 1.477 0.714 3.316 2.263 5.518z" fill="#8d021f" data-fill-palette-color="primary"></path><path d="M245.531 224.994l-22.424-16.822-2.339 2.367-1.405-1.054 3.313-5.708 0.053-0.071 1.03-0.343 24.347 18.264 2.338-2.576 1.601 1.201-6.6 8.798-1.602-1.201z" fill="#8d021f" data-fill-palette-color="primary"></path><path d="M258.513 177.699c2.151 0.839 3.947 2.049 5.388 3.629 1.438 1.586 2.355 3.404 2.748 5.454 0.4 2.052 0.171 4.178-0.687 6.378v0c-0.238 0.609-0.546 1.247-0.925 1.914-0.379 0.666-0.727 1.188-1.042 1.563v0l3.224 1.131 3.839 1.498 1.961-3.785 1.856 0.724-4.13 10.585-1.855-0.724 0.645-2.897-25.055-9.775-1.77 2.512-2.047-0.799 1.418-5.661 0.032-0.082 0.996-0.528 2.24 0.874c-0.54-1.081-0.883-2.3-1.028-3.655-0.139-1.353 0.062-2.725 0.604-4.114v0c0.585-1.499 1.487-2.731 2.705-3.695 1.221-0.97 2.753-1.531 4.596-1.683 1.839-0.16 3.935 0.218 6.287 1.136zM246.97 184.529c-0.376 0.963-0.522 1.941-0.44 2.935 0.076 0.992 0.266 1.81 0.57 2.455v0l14.314 5.585c0.376-0.064 0.823-0.409 1.342-1.036 0.524-0.624 0.954-1.366 1.289-2.225v0c0.761-1.95 0.603-3.83-0.475-5.64-1.073-1.802-3.167-3.31-6.281-4.526v0c-2.73-1.065-4.973-1.336-6.728-0.813-1.752 0.531-2.949 1.62-3.591 3.265z" fill="#8d021f" data-fill-palette-color="primary"></path><path d="M4.801 144.184c0-6.388 5.179-11.567 11.567-11.567 6.388 0 11.567 5.179 11.566 11.567 0 6.388-5.179 11.567-11.566 11.567-6.388 0-11.567-5.179-11.567-11.567z" fill="#8d021f" data-fill-palette-color="primary"></path><path d="M252.066 144.184c0-6.388 5.179-11.567 11.566-11.567 6.388 0 11.567 5.179 11.567 11.567 0 6.388-5.179 11.567-11.567 11.567-6.388 0-11.567-5.179-11.566-11.567z" fill="#8d021f" data-fill-palette-color="primary"></path></g></svg></g></svg></g></svg></g></svg></g><defs></defs></svg><rect width="280" height="280" fill="none" stroke="none" visibility="hidden"></rect></g></svg></g></svg>